<?xml version="1.0" encoding="utf-8"?>
<!-- Generator: Adobe Illustrator 24.0.0, SVG Export Plug-In . SVG Version: 6.00 Build 0)  -->
<svg version="1.1" id="Capa_1" xmlns="http://www.w3.org/2000/svg" xmlns:xlink="http://www.w3.org/1999/xlink" x="0px" y="0px"
	 viewBox="0 0 512 512" style="enable-background:new 0 0 512 512;" xml:space="preserve">
<style type="text/css">
	.st0{fill:#EACA6F;}
	.st1{fill:#CD4F38;}
	.st2{fill:#3A3E48;}
	.st3{fill:#936642;}
	.st4{fill:#5D9069;}
</style>
<g transform="translate(-1 -1)">
	<path class="st0" d="M152.9,443.6l49.2-35.2c6.7-4.8,9.1-13.6,5.8-21.2l-22.9-51.6c-3.7-8.4-2.8-18.2,2.6-25.7l26.2-36.7
		c5.3-7.4,6.3-17,2.7-25.4l-20.3-47.3l0,0l0-43.4l138.8,17.4l-32.7,37.8c-6.5,8.6-7,20.3-1.2,29.4l27.4,43.9
		c4.1,6.6,5.1,14.7,2.6,22L304.1,389c-2.3,6.8-0.1,14.2,5.4,18.8l43,35.8l-43.4,52.1H204.9L152.9,443.6z"/>
	<path class="st1" d="M152.9,452.3v-8.7h41.4c7,0,13.9,1.9,19.9,5.5l8.4,5c15.2,9.1,34.6,6.7,47.2-5.8l0,0
		c8.4-8.4,20.3-12.5,32.1-11l50.7,6.3v8.7c0,16.1-6.4,31.6-17.8,43s-26.8,17.8-43,17.8h-78.1c-16.1,0-31.6-6.4-43-17.8
		C159.3,483.8,152.9,468.4,152.9,452.3L152.9,452.3z"/>
	<g>
		<path class="st2" d="M239.6,356.8c-4.6,0.1-9.1-1.7-12.4-5c-3.3-3.3-5.1-7.7-5-12.4c0-4.7,3.8-8.6,8.6-8.7
			c4.7-0.1,8.6,3.7,8.8,8.4c4.8,0.1,8.7,4,8.7,8.8C248.3,352.8,244.5,356.7,239.6,356.8L239.6,356.8z"/>
		<path class="st2" d="M274.4,339.4c-4.8,0-8.7-3.9-8.7-8.7s3.9-8.7,8.7-8.7c0-4.8,3.9-8.7,8.7-8.7s8.7,3.9,8.7,8.7
			c0.1,4.6-1.7,9.1-5,12.4C283.5,337.7,279,339.5,274.4,339.4L274.4,339.4z"/>
		<path class="st2" d="M257,304.7c-4.6,0.1-9.1-1.7-12.4-5c-3.3-3.3-5.1-7.7-5-12.4c0-4.7,3.8-8.6,8.6-8.7c4.7-0.1,8.6,3.7,8.8,8.4
			c4.8,0.1,8.7,4,8.7,8.8C265.7,300.7,261.8,304.7,257,304.7L257,304.7z"/>
	</g>
	<path class="st1" d="M317.7,131.2H196.3c-25.3,1.4-44.6,22.9-43.4,48.2v2.7c-0.1,4,2.3,7.6,5.9,9.1l15,5.5
		c19.7,7.3,41.8,4,58.5-8.7l0,0c15.3-11.6,35.1-15.4,53.5-10.3l64.5,17.9c2.7,0.6,5.6-0.1,7.7-2s3.3-4.6,3.1-7.4v-6.9
		C362.4,154.1,343,132.6,317.7,131.2L317.7,131.2z"/>
	<path class="st3" d="M257,139.9c-2.3,0-4.5-0.9-6.1-2.5c-1.6-1.6-2.5-3.8-2.5-6.1c0-71.7,45.6-107.2,72.8-128.3
		c2.4-1.9,5.7-2.4,8.6-1.2s4.9,3.8,5.3,6.9s-0.8,6.1-3.3,8c-26.3,20.5-66.1,51.4-66.1,114.6c0,2.3-0.9,4.5-2.5,6.1
		C261.5,138.9,259.3,139.9,257,139.9L257,139.9z"/>
	<path class="st4" d="M196.3,9.7h21.5c26.5,0,47.9,21.5,47.9,47.9v21.5h-21.5c-26.5,0-47.9-21.5-47.9-47.9V9.7z"/>
</g>
</svg>
