<?xml version="1.0" encoding="utf-8"?>
<!-- Generator: Adobe Illustrator 24.0.0, SVG Export Plug-In . SVG Version: 6.00 Build 0)  -->
<svg version="1.1" id="Lag_1" xmlns="http://www.w3.org/2000/svg" xmlns:xlink="http://www.w3.org/1999/xlink" x="0px" y="0px"
	 viewBox="0 0 512 512" style="enable-background:new 0 0 512 512;" xml:space="preserve">
<style type="text/css">
	.st0{fill:#FF7816;}
	.st1{fill:#FF9F00;}
	.st2{fill:#FFD400;}
	.st3{fill:#F6A117;}
	.st4{fill:#E25A4B;}
	.st5{fill:#EF492E;}
	.st6{fill:#697C86;}
	.st7{fill:#465A61;}
</style>
<path class="st0" d="M467,0h-43.2l-30.7,30H467c8.3,0,15,6.7,15,15v22.9c0,30.2-10.4,59.9-29.3,83.5c-16.1,20.2-37.6,35.1-62.1,43.3
	l-21.2,7c-7.9,2.6-12.1,11.1-9.5,19c2.1,6.3,8,10.3,14.2,10.3c1.6,0,3.2-0.2,4.7-0.8l21.2-7.1c30-10,56.3-28.3,76-53
	c23.1-28.9,35.9-65.2,35.9-102.2V45C512,20.2,491.8,0,467,0z"/>
<path class="st1" d="M142.5,201.7l-21.2-7c-24.5-8.2-46-23.1-62.1-43.3C40.4,127.7,30,98.1,30,67.9V45c0-8.3,6.7-15,15-15h77.5
	L88.2,0H45C20.2,0,0,20.2,0,45v22.9c0,37,12.7,73.3,35.9,102.2c19.8,24.7,46.1,43,76,53l21.2,7c1.6,0.5,3.2,0.8,4.7,0.8
	c6.3,0,12.1-4,14.2-10.3C154.6,212.8,150.4,204.3,142.5,201.7z"/>
<path class="st2" d="M302,292.8V315c0,8.4,6.6,15,15,15c24.9,0,45,20.1,45,45v30c0,8.4-6.6,15-15,15H165c-8.4,0-15-6.6-15-15v-30
	c0-24.9,20.1-45,45-45c8.4,0,15-6.6,15-15v-22.2c-55.8-17.7-96.6-66.9-103.2-125.4L88.2,0h335.6l-18.6,167.4
	C398.6,225.9,357.8,275.1,302,292.8z"/>
<path class="st3" d="M347,420h-91V0h167.8l-18.6,167.4c-6.6,58.5-47.4,107.7-103.2,125.4V315c0,8.4,6.6,15,15,15
	c24.9,0,45,20.1,45,45v30C362,413.4,355.4,420,347,420z"/>
<path class="st1" d="M330.4,113.1c-1.8-5.7-6.6-9.6-12.3-10.5l-33.6-4.8l-15-29.7c-2.7-5.1-8.1-7.5-13.5-7.5s-10.8,2.4-13.5,7.5
	l-15,29.7l-33.6,4.8c-5.7,0.9-10.5,4.8-12.3,10.5c-1.5,5.4,0,11.4,4.2,15.3l24,23.1l-5.7,32.4c-0.9,5.4,1.2,11.1,6,14.7
	c4.5,3.3,10.8,3.9,15.6,1.2l30.3-15.6l30.3,15.6c5.1,2.7,11.1,2.1,15.6-1.2c4.8-3.6,6.9-9.3,6-14.7l-5.7-32.4l24-23.1
	C330.4,124.5,331.9,118.5,330.4,113.1z"/>
<path class="st4" d="M392,405v90.8H120V405c0-8.4,6.6-15,15-15h242C385.4,390,392,396.6,392,405z"/>
<path class="st0" d="M286.3,199.8L256,184.2V60.6c5.4,0,10.8,2.4,13.5,7.5l15,29.7l33.6,4.8c5.7,0.9,10.5,4.8,12.3,10.5
	c1.5,5.4,0,11.4-4.2,15.3l-24,23.1l5.7,32.4c0.9,5.4-1.2,11.1-6,14.7C297.4,201.9,291.4,202.5,286.3,199.8z"/>
<path class="st5" d="M392,405v90.8H256V390h121C385.4,390,392,396.6,392,405z"/>
<path class="st6" d="M422,497c0,8.4-6.6,15-15,15H105c-8.4,0-15-6.6-15-15c0-8.4,6.6-15,15-15h302C415.4,482,422,488.6,422,497z"/>
<path class="st7" d="M422,497c0,8.4-6.6,15-15,15H256v-30h151C415.4,482,422,488.6,422,497z"/>
</svg>
