<svg id="Lag_1" data-name="Lag 1" xmlns="http://www.w3.org/2000/svg" viewBox="0 0 97.09 110.96"><defs><style>.cls-1{fill:#f6a11a;}.cls-2,.cls-3{isolation:isolate;}.cls-3{font-size:50px;fill:#e94a30;font-family:ProximaNova-Bold, Proxima Nova;font-weight:700;}</style></defs><title>goalwithscore</title><path id="trash3" class="cls-1" d="M118.61,35.93h-26l-2-4.05A5.2,5.2,0,0,0,85.91,29H61.13a5.14,5.14,0,0,0-4.63,2.89l-2,4.05h-26A3.48,3.48,0,0,0,25,39.39v6.94a3.49,3.49,0,0,0,3.47,3.47h90.16a3.49,3.49,0,0,0,3.47-3.47V39.39A3.48,3.48,0,0,0,118.61,35.93ZM36.51,130.2A10.42,10.42,0,0,0,46.9,140h53.27a10.42,10.42,0,0,0,10.38-9.76l4.59-73.46H31.92Z" transform="translate(-24.98 -28.99)"/><g id="_45" data-name=" 45" class="cls-2"><text class="cls-3" transform="translate(18.86 82.99)">45</text></g></svg>