<?xml version="1.0" encoding="utf-8"?>
<!-- Generator: Adobe Illustrator 24.0.1, SVG Export Plug-In . SVG Version: 6.00 Build 0)  -->
<svg version="1.1" id="Lag_1" xmlns="http://www.w3.org/2000/svg" xmlns:xlink="http://www.w3.org/1999/xlink" x="0px" y="0px"
	 viewBox="0 0 336 329.9" style="enable-background:new 0 0 336 329.9;" xml:space="preserve">
<style type="text/css">
	.st0{fill:#F5F5F5;}
	.st1{fill:#CFD8DC;}
	.st2{fill:#9E9E9E;}
</style>
<path id="Shape" class="st0" d="M270.9,59.2l-70.9-29.5c-5.3-2.2-11.3-1.6-16,1.6l-35,23.4l-31.6-24.5c-6.4-5-15.5-4.7-21.6,0.6
	L61.2,60.6c-4.3,3.7-6.5,9.4-5.8,15l6,47.7l-35.9,32.2c-5.4,4.8-7.1,12.5-4.4,19.2l25.7,62.2c1.9,4.5,5.5,8,10.1,9.6l65.3,22.9
	c5.1,1.8,10.7,1.1,15.1-1.9l35.5-23.7l51.7,25.8c6,3,13.3,2.2,18.5-2.1l45.7-37.7c6.8-5.6,8.2-15.4,3.3-22.7l-19.9-29.7l30.1-46.3
	c3.3-5.1,3.7-11.5,1-17l-23.6-47.1C277.8,63.6,274.7,60.8,270.9,59.2L270.9,59.2z"/>
<path id="Shape_1_" class="st1" d="M303.2,114.4l-23.6-47.1c-1.8-3.7-4.9-6.5-8.7-8.1l-70.9-29.5c-5.3-2.2-11.3-1.6-16,1.6l-2.2,1.5
	l63.6,26.4c3.8,1.6,6.9,4.5,8.7,8.1l23.6,47.1c2.7,5.4,2.4,11.9-0.9,17l-30.1,46.3l19.9,29.7c4.9,7.3,3.4,17.1-3.3,22.7l-44.6,36.7
	l6,3c6,3,13.3,2.2,18.5-2.1l45.7-37.7c6.8-5.6,8.2-15.4,3.3-22.7l-19.9-29.7l30.1-46.3C305.6,126.3,305.9,119.8,303.2,114.4
	L303.2,114.4z"/>
<path id="Shape_2_" class="st2" d="M139.6,202.9c-3.4,0-6.6-2.1-7.9-5.3c-1.3-3.2-0.6-6.9,1.8-9.3l20.8-20.9
	c2.9-2.9,3.3-7.4,1.1-10.8l-20.7-31c-1.8-2.5-2.1-5.9-0.8-8.7c1.3-2.8,4.1-4.7,7.2-4.8c3.1-0.2,6.1,1.4,7.7,4.1l20.7,30.9
	c6.7,10.2,5.4,23.7-3.2,32.3l-20.8,20.9C144.1,202,141.9,202.9,139.6,202.9z"/>
<path id="Shape_3_" class="st2" d="M222.4,188.6c-3.8,0-7.2-2.6-8.2-6.3l-3.9-14.2c-2.9-10.6,1.3-21.9,10.5-28.1l11.1-7.4
	c2.5-1.8,5.8-2.1,8.6-0.7s4.6,4.1,4.8,7.2c0.2,3.1-1.4,6.1-4,7.7l-11.1,7.4c-3.1,2-4.5,5.8-3.5,9.4l3.9,14.2
	c0.6,2.2,0.3,4.5-0.8,6.5c-1.1,2-3,3.4-5.2,4C223.9,188.5,223.2,188.6,222.4,188.6L222.4,188.6z"/>
<path id="Shape_8_" d="M310.8,110.6l-23.6-47.1c-2.8-5.5-7.4-9.8-13.1-12.2l-71-29.5c-7.9-3.3-16.9-2.4-24,2.4l-29.9,20l-26.7-20.7
	c-9.6-7.4-23.2-7.1-32.4,0.9L55.6,54.1c-6.5,5.6-9.7,14.1-8.6,22.6l5.5,43.3l-32.6,29.2c-8.1,7.2-10.7,18.8-6.6,28.8L39,240.3
	c2.8,6.7,8.3,12,15.2,14.4l65.3,22.9c7.6,2.6,16,1.6,22.7-2.9l31.4-21l47.2,23.5c9,4.5,19.9,3.3,27.7-3.1l45.7-37.7
	c10.2-8.3,12.4-23.1,5-34l-16.7-25l27-41.6C314.4,128.4,314.9,118.7,310.8,110.6L310.8,110.6z M295.1,126.7L265,172.9l-25.9,37.7
	c-2.7,3.9-1.7,9.2,2.2,11.9s9.2,1.7,11.9-2.2l18.9-27.5l12.9,19.3c2.4,3.7,1.7,8.5-1.7,11.3l-45.7,37.7c-2.6,2.1-6.2,2.5-9.2,1
	l-38.5-19.2l9.1-6.1c3.9-2.6,5-7.9,2.4-11.8c-2.6-3.9-7.9-5-11.8-2.4l-21.3,14.2l-35.4,23.7c-2.2,1.5-5,1.8-7.6,1l-65.3-22.9
	c-2.3-0.8-4.1-2.5-5.1-4.8l-25.7-62.2c-1.4-3.3-0.5-7.2,2.2-9.6l24.6-22.1l9.1,49c0.8,4,4.3,7,8.4,7c0.5,0,1.1,0,1.6-0.1
	c4.6-0.9,7.7-5.3,6.8-9.9l-11.9-63.7l-6-47.4c-0.4-2.8,0.7-5.6,2.9-7.5l34.5-29.9c3.1-2.7,7.6-2.8,10.8-0.3l31.5,24.4l47.2,40
	c3.6,2.9,8.9,2.4,11.9-1.1c3-3.5,2.6-8.8-0.8-11.9l-38.7-32.9l25.6-17.1c2.4-1.6,5.4-1.9,8-0.8l70.9,29.5c1.9,0.8,3.4,2.2,4.4,4.1
	l23.6,47C297,120.9,296.8,124.1,295.1,126.7L295.1,126.7z"/>
</svg>
