<?xml version="1.0" encoding="utf-8"?>
<!-- Generator: Adobe Illustrator 24.0.0, SVG Export Plug-In . SVG Version: 6.00 Build 0)  -->
<svg version="1.1" id="Lag_1" xmlns="http://www.w3.org/2000/svg" xmlns:xlink="http://www.w3.org/1999/xlink" x="0px" y="0px"
	 viewBox="0 0 512 512" style="enable-background:new 0 0 512 512;" xml:space="preserve">
<style type="text/css">
	.st0{fill:#48ADD9;}
	.st1{fill:#348FD9;}
	.st2{fill:#3086CD;}
	.st3{fill:#2D7DBF;}
	.st4{fill:#4DB7E5;}
	.st5{fill:#79C6E8;}
	.st6{fill:#F35244;}
	.st7{fill:#FC685B;}
	.st8{fill:#EA4A3B;}
	.st9{fill:#60D1E0;}
	.st10{fill:#5AC6D4;}
	.st11{fill:#3FB7C7;}
	.st12{fill:#9FE4ED;}
</style>
<path class="st0" d="M327.3,481.2c4.5,4.4,10.5,6.8,16.7,6.8h14.6c-4.2,0-8.3-1.7-11.3-4.7C342,478,333.6,477.1,327.3,481.2
	L327.3,481.2z"/>
<path class="st1" d="M442.5,296.4c-3.4,10.1-3.4,21.1,0,31.2l2.9,8.8c1.7,5,2.5,10.3,2.5,15.6v112c0,13.3-10.7,24-24,24h-17.4
	c-2.1,0-4.2-0.4-6.1-1.2c-1.6-0.7-3.2-1.6-4.5-2.8c-0.2-0.2-0.5-0.4-0.7-0.6s-0.5-0.4-0.7-0.6c-0.4-0.4-0.8-0.7-1.2-1
	c-0.2-0.2-0.5-0.3-0.7-0.5c-6.3-4.1-14.7-3.2-20,2.1c-3,3-7.1,4.7-11.3,4.7H344c-13.3,0-24-10.7-24-24V352c0-5.3,0.9-10.6,2.5-15.6
	l2.9-8.8c3.4-10.1,3.4-21.1,0-31.2l-2.9-8.8c-1.7-5-2.5-10.3-2.5-15.6v-33.2c0-20,6.3-39.5,17.9-55.8l22.1-31v-40h48v40l22.1,31
	c11.6,16.3,17.9,35.8,17.9,55.8V272c0,5.3-0.9,10.6-2.5,15.6l-0.1,0.4L442.5,296.4z"/>
<path class="st2" d="M448,238.8V272c0,5.3-0.9,10.6-2.5,15.6l-0.1,0.4l-2.8,8.4c-3.4,10.1-3.4,21.1,0,31.2l2.9,8.8
	c1.7,5,2.5,10.3,2.5,15.6v112c0,13.3-10.7,24-24,24h-16c-4.3,0-8.5-1.4-12-4c-0.2-0.2-0.5-0.4-0.7-0.6s-0.5-0.4-0.7-0.6
	c-0.4-0.4-0.8-0.7-1.2-1c-0.2-0.2-0.5-0.3-0.7-0.5l0,0c4.7-4.5,7.3-10.7,7.3-17.2V352c0-5.3-0.9-10.6-2.5-15.6l-2.9-8.8
	c-3.4-10.1-3.4-21.1,0-31.2l2.8-8.4l0.1-0.4c1.7-5,2.5-10.3,2.5-15.6v-33.2c0-4.9-0.4-9.9-1.1-14.8c-2.3-14.8-8-28.8-16.7-41
	L360,152v-40h48v40l22.1,31C441.8,199.2,448,218.8,448,238.8L448,238.8z"/>
<g>
	<path class="st3" d="M446.9,224H376v-16h66.9C444.7,213.2,446,218.6,446.9,224L446.9,224z"/>
	<path class="st3" d="M376,240h72v16h-72V240z"/>
	<path class="st3" d="M448,272c0,5.3-0.9,10.6-2.5,15.6l-0.1,0.4H376v-16H448z"/>
	<path class="st3" d="M376,352h72v16h-72V352z"/>
	<path class="st3" d="M376,384h72v16h-72V384z"/>
	<path class="st3" d="M376,416h72v16h-72V416z"/>
</g>
<path class="st2" d="M368,312l-8,16l8,16v16l-8,16l8,16v16l-8,16l8,16v32c0.1,7.3-4.5,13.8-11.4,16H344c-13.3,0-24-10.7-24-24V352
	c0-5.3,0.9-10.6,2.5-15.6l2.9-8.8c3.4-10.1,3.4-21.1,0-31.2l-2.9-8.8c-1.7-5-2.5-10.3-2.5-15.6v-33.2c0-7.7,0.9-15.3,2.7-22.8H336
	v32l23.2,11.6c5.4,2.7,8.8,8.3,8.8,14.3V312z"/>
<path class="st4" d="M272,192v242c0,29.8-24.2,54-54,54c-11.7,0-23.1-3.8-32.4-10.8c-10.4-7.8-24.8-7.8-35.2,0
	c-23.9,17.9-57.7,13.1-75.6-10.8c-5.6-7.4-9.1-16.1-10.3-25.3c-0.3-2.4-0.5-4.7-0.5-7.1V192c0-45.1,29.1-85.1,72-98.9V24h64v69.1
	C242.9,106.9,272,146.9,272,192L272,192z"/>
<path class="st0" d="M272,192v242c0,29.8-24.2,54-54,54c-11.7,0-23.1-3.8-32.4-10.8c-10.4-7.8-24.8-7.8-35.2,0
	c-23.9,17.9-57.7,13.1-75.6-10.8c-5.6-7.4-9.1-16.1-10.3-25.3c68.5-47.2,141.6-134.7,196.8-295C268.4,160.3,272,176.1,272,192
	L272,192z"/>
<path class="st5" d="M132.4,138.8l-8.9-13.3c6.1-4.1,12.8-7.3,19.8-9.6l4.9,15.2C142.7,132.9,137.3,135.5,132.4,138.8z"/>
<path class="st5" d="M104.4,184.9l-15.9-1.8c2-17.5,9.6-33.8,21.8-46.5l11.5,11.1C112.1,157.8,106,170.9,104.4,184.9z"/>
<path class="st5" d="M120,56h96v16h-96V56z"/>
<path class="st6" d="M64,208h208v176H64V208z"/>
<path class="st7" d="M88,232h16v16H88V232z"/>
<path class="st7" d="M88,264h16v72H88V264z"/>
<path class="st0" d="M136,72h64v24h-64V72z"/>
<path class="st8" d="M272,208v176H129.4c38.1-41.6,75.4-98.5,108.2-176H272z"/>
<path class="st9" d="M344,328l8,16v16l-8,16l8,16v16l-8,16l8,16v32c0,8.8-7.2,16-16,16h-80c-8.8,0-16-7.2-16-16v-32l8-16l-8-16v-16
	l8-16l-8-16v-16l8-16l-8-16v-38.1c0-6.1,3.4-11.6,8.8-14.3L272,248v-32h48v32l23.2,11.6c5.4,2.7,8.8,8.3,8.8,14.3V312L344,328z"/>
<path class="st10" d="M352,312l-8,16l8,16v16l-8,16l8,16v16l-8,16l8,16v32c0,8.8-7.2,16-16,16h-32c8.8,0,16-7.2,16-16v-32l-8-16
	l8-16v-16l-8-16l8-16v-16l-8-16l8-16v-38.1c0-6.1-3.4-11.6-8.8-14.3L288,248v-32h32v32l23.2,11.6c5.4,2.7,8.8,8.3,8.8,14.3V312z"/>
<path class="st11" d="M344,328l4,8h-76v-16h76L344,328z"/>
<path class="st11" d="M344,376l4,8h-76v-16h76L344,376z"/>
<path class="st11" d="M344,424l4,8h-76v-16h76L344,424z"/>
<path class="st12" d="M264,280h16v24h-16V280z"/>
<ellipse class="st11" cx="296" cy="216" rx="24" ry="16"/>
</svg>
