<?xml version="1.0" encoding="utf-8"?>
<!-- Generator: Adobe Illustrator 24.0.0, SVG Export Plug-In . SVG Version: 6.00 Build 0)  -->
<svg version="1.1" id="Lag_1" xmlns="http://www.w3.org/2000/svg" xmlns:xlink="http://www.w3.org/1999/xlink" x="0px" y="0px"
	 viewBox="0 0 512 512" style="enable-background:new 0 0 512 512;" xml:space="preserve">
<style type="text/css">
	.st0{fill:#F6A117;}
	.st1{fill:#402A4F;}
	.st2{fill:#EF492E;}
	.st3{fill:#BFC9D1;}
	.st4{fill:#1F1436;}
</style>
<path class="st0" d="M512,256c0,141.4-114.6,256-256,256S0,397.4,0,256S114.6,0,256,0S512,114.6,512,256z"/>
<path class="st1" d="M480,256c0,123.7-100.3,224-224,224S32,379.7,32,256S132.3,32,256,32S480,132.3,480,256z"/>
<path class="st2" d="M256,64c8.8,0,16,7.2,16,16v112c0,8.8-7.2,16-16,16s-16-7.2-16-16V80C240,71.2,247.2,64,256,64z"/>
<path class="st2" d="M288,288c6.2-6.2,16.4-6.2,22.6,0l41.4,41.4c6.2,6.2,6.2,16.4,0,22.6c-6.2,6.2-16.4,6.2-22.6,0L288,310.6
	C281.8,304.4,281.8,294.3,288,288z"/>
<path class="st3" d="M240,240h32v32h-32V240z"/>
<g>
	<path class="st4" d="M64,240h32v32H64V240z"/>
	<path class="st4" d="M416,240h32v32h-32V240z"/>
	<path class="st4" d="M240,416h32v32h-32V416z"/>
</g>
</svg>
