<svg id="Lag_1" data-name="Lag 1" xmlns="http://www.w3.org/2000/svg" viewBox="0 0 131.06 149.78"><defs><style>.cls-1{fill:#717070;}.cls-2{fill:#fcefde;}.cls-3{fill:#fce4c6;}.cls-4{fill:#a2e1f8;}.cls-5{fill:#82d5f2;}.cls-6{fill:#ef75a7;}.cls-7{fill:#eb5793;}.cls-8{fill:#f8d9b4;}.cls-9{fill:#e7387f;}.cls-10{fill:#e7c33c;}.cls-11{fill:#cbf4ff;}</style></defs><title>trashwithdetergent</title><path id="trash3" class="cls-1" d="M126.36,9.36H91.26L88.51,3.9A7,7,0,0,0,82.22,0H48.78a7,7,0,0,0-6.27,3.89L39.78,9.36H4.67A4.69,4.69,0,0,0,0,14.06v9.36a4.7,4.7,0,0,0,4.68,4.64H126.36a4.71,4.71,0,0,0,4.69-4.67V14.06A4.72,4.72,0,0,0,126.36,9.36ZM15.55,136.61a14.06,14.06,0,0,0,14,13.17h71.91a14.07,14.07,0,0,0,14-13.17l6.2-99.16H9.35Z" transform="translate(0.01 0)"/><path class="cls-2" d="M99.35,114.18v-33a6.8,6.8,0,0,0-3.09-5.7l-7.39-4.83H78.39L71,75.5a6.8,6.8,0,0,0-3.09,5.7v45.49H99.35V114.18Z" transform="translate(0.01 0)"/><path class="cls-3" d="M96.26,75.5l-7.39-4.83H83.73l7.4,4.83a6.82,6.82,0,0,1,3.08,5.7v45.49h5.14V81.2a6.8,6.8,0,0,0-3.09-5.7Z" transform="translate(0.01 0)"/><path class="cls-4" d="M67.91,87.24H99.35v18.37H67.91Z" transform="translate(0.01 0)"/><path class="cls-5" d="M94.21,87.24h5.14v18.37H94.21Z" transform="translate(0.01 0)"/><path class="cls-6" d="M45.73,62H33.85V51.78a2.43,2.43,0,0,1,2.43-2.43h7a2.43,2.43,0,0,1,2.43,2.43Z" transform="translate(0.01 0)"/><path class="cls-7" d="M43.3,49.35H37.08a2.43,2.43,0,0,1,2.43,2.43V62h6.22V51.78A2.43,2.43,0,0,0,43.3,49.35Z" transform="translate(0.01 0)"/><path class="cls-3" d="M51.63,68A8.47,8.47,0,0,0,46,65.83H33.24a4.39,4.39,0,0,0-4.38,4.39v52.67a3.8,3.8,0,0,0,3.79,3.8H72a3.8,3.8,0,0,0,3.8-3.8v-.62A73.11,73.11,0,0,0,51.63,68Zm7.53,24.16a3,3,0,0,1-2.79-1.55,47.24,47.24,0,0,0-8.54-11.25,3,3,0,0,1-.79-3l0-.06a3,3,0,0,1,5-1.23,68.11,68.11,0,0,1,9.47,12.55,3,3,0,0,1-2.42,4.51Z" transform="translate(0.01 0)"/><path class="cls-8" d="M51.63,68A8.47,8.47,0,0,0,46,65.83H40.85A8.46,8.46,0,0,1,46.49,68a73.07,73.07,0,0,1,24.14,54.27v.62a3.8,3.8,0,0,1-3.79,3.8H72a3.8,3.8,0,0,0,3.8-3.8v-.62A73.11,73.11,0,0,0,51.63,68Z" transform="translate(0.01 0)"/><path class="cls-9" d="M31.55,60.29H48v5.54H31.55Z" transform="translate(0.01 0)"/><path class="cls-6" d="M37.89,72.57a3.89,3.89,0,0,1,3.89,3.9v3.76a3.93,3.93,0,0,0,.7,2.23l10,14.32a3.88,3.88,0,0,0,3.19,1.67h7.19a3.9,3.9,0,0,1,3.71,2.7,79,79,0,0,1,3.35,15,3.89,3.89,0,0,1-3.87,4.3H37.89a3.89,3.89,0,0,1-3.9-3.9V76.47a3.89,3.89,0,0,1,3.9-3.9Z" transform="translate(0.01 0)"/><path class="cls-4" d="M88.79,70.67H78.47V62.94a2.68,2.68,0,0,1,2.69-2.69H86.1a2.68,2.68,0,0,1,2.69,2.69v7.73Z" transform="translate(0.01 0)"/><path class="cls-5" d="M86.1,60.25h-5a2.69,2.69,0,0,1,2.6,2.69v7.73h5.13V62.94A2.68,2.68,0,0,0,86.1,60.25Z" transform="translate(0.01 0)"/><path class="cls-10" d="M80.79,126.69H105a1.2,1.2,0,0,0,1.2-1.2v-1.8a1.2,1.2,0,0,0-1.2-1.2H80.79a1.21,1.21,0,0,0-1.21,1.2v1.8A1.21,1.21,0,0,0,80.79,126.69Z" transform="translate(0.01 0)"/><path class="cls-11" d="M103,122.41a4.71,4.71,0,0,0-6.26-7,3.59,3.59,0,0,0-7,.83,5.14,5.14,0,0,0-7.45,6.2Z" transform="translate(0.01 0)"/></svg>