<svg id="Lag_1" data-name="Lag 1" xmlns="http://www.w3.org/2000/svg" viewBox="0 0 131.06 149.78"><defs><style>.cls-1{fill:#717070;}.cls-2{fill:#f5f5f5;}.cls-3{fill:#cfd8dc;}.cls-4{fill:#9e9e9e;}</style></defs><title>trashwithpaper</title><path id="trash3" class="cls-1" d="M126.36,9.36H91.26L88.51,3.9A7,7,0,0,0,82.22,0H48.78a7,7,0,0,0-6.27,3.89L39.78,9.36H4.67A4.69,4.69,0,0,0,0,14.06v9.36a4.7,4.7,0,0,0,4.68,4.64H126.36a4.71,4.71,0,0,0,4.69-4.67V14.06A4.72,4.72,0,0,0,126.36,9.36ZM15.55,136.61a14.06,14.06,0,0,0,14,13.17h71.91a14.07,14.07,0,0,0,14-13.17l6.2-99.16H9.35Z" transform="translate(0.01 0)"/><path id="Shape" class="cls-2" d="M100.23,67.55,77.65,58.16a5.37,5.37,0,0,0-5.09.51L61.41,66.12l-10.06-7.8a5.41,5.41,0,0,0-6.88.19L33.45,68a5.45,5.45,0,0,0-1.84,4.77L33.52,88,22.09,98.22a5.44,5.44,0,0,0-1.41,6.11l8.19,19.81a5.43,5.43,0,0,0,3.22,3.06l20.79,7.29a5.36,5.36,0,0,0,4.81-.61L69,126.34l16.47,8.21a5.44,5.44,0,0,0,5.89-.67l14.55-12a5.43,5.43,0,0,0,1-7.23l-6.34-9.46,9.59-14.74a5.49,5.49,0,0,0,.32-5.42L103,70a5.57,5.57,0,0,0-2.77-2.48Z" transform="translate(0.01 0)"/><path id="Shape-2" data-name="Shape" class="cls-3" d="M110.52,85.13l-7.52-15a5.33,5.33,0,0,0-2.77-2.58L77.65,58.16a5.37,5.37,0,0,0-5.09.51l-.7.47,20.25,8.41a5.45,5.45,0,0,1,2.77,2.58l7.52,15a5.47,5.47,0,0,1-.29,5.41l-9.58,14.75,6.33,9.45a5.46,5.46,0,0,1-1,7.23l-14.2,11.69,1.91,1a5.46,5.46,0,0,0,5.89-.67l14.55-12a5.42,5.42,0,0,0,1.05-7.23l-6.33-9.46,9.58-14.74a5.49,5.49,0,0,0,.26-5.38Z" transform="translate(0.01 0)"/><path id="Shape-3" data-name="Shape" class="cls-4" d="M58.42,113.31a2.73,2.73,0,0,1-1.94-4.65L63.1,102a2.75,2.75,0,0,0,.35-3.44L56.86,88.7a2.78,2.78,0,0,1-.25-2.77A2.61,2.61,0,0,1,58.9,84.4a2.65,2.65,0,0,1,2.45,1.3l6.59,9.84a8.18,8.18,0,0,1-1,10.29l-6.62,6.65A2.43,2.43,0,0,1,58.42,113.31Z" transform="translate(0.01 0)"/><path id="Shape-4" data-name="Shape" class="cls-4" d="M84.79,108.76a2.72,2.72,0,0,1-2.61-2l-1.25-4.52a8.2,8.2,0,0,1,3.35-9l3.53-2.36a2.67,2.67,0,0,1,2.74-.22,2.72,2.72,0,0,1,.26,4.75L87.27,97.8a2.69,2.69,0,0,0-1.11,3l1.24,4.52a2.77,2.77,0,0,1-.26,2.07,2.64,2.64,0,0,1-1.65,1.27,2.28,2.28,0,0,1-.7.1Z" transform="translate(0.01 0)"/><path id="Shape-5" data-name="Shape" d="M112.94,83.92l-7.52-15A8.22,8.22,0,0,0,101.25,65l-22.61-9.4a8.07,8.07,0,0,0-7.64.77l-9.52,6.36L53,56.18a8.15,8.15,0,0,0-10.31.29l-11,9.46a8.11,8.11,0,0,0-2.74,7.19l1.75,13.79L20.3,96.21a8.16,8.16,0,0,0-2.1,9.17l8.18,19.84a8.25,8.25,0,0,0,4.85,4.59L52,137.1a8.2,8.2,0,0,0,7.23-.92l10-6.69,15,7.48a8.18,8.18,0,0,0,8.82-1l14.55-12a8.11,8.11,0,0,0,1.59-10.83l-5.31-8,8.59-13.25a8,8,0,0,0,.42-8Zm-5,5.13-9.59,14.71-8.24,12a2.73,2.73,0,0,0,4.49,3.09l6-8.75,4.11,6.14a2.71,2.71,0,0,1-.54,3.6l-14.55,12a2.72,2.72,0,0,1-2.93.32l-12.26-6.11,2.9-1.94a2.72,2.72,0,0,0-3-4.53l-6.78,4.53-11.27,7.54a2.79,2.79,0,0,1-2.42.32l-20.8-7.29a2.77,2.77,0,0,1-1.62-1.53l-8.19-19.81a2.7,2.7,0,0,1,.7-3l7.84-7,2.9,15.6a2.75,2.75,0,0,0,2.67,2.23,2.91,2.91,0,0,0,.51,0,2.71,2.71,0,0,0,2.17-3.15L36.26,87.61,34.35,72.52a2.66,2.66,0,0,1,.92-2.39l11-9.52a2.69,2.69,0,0,1,3.43-.1l10,7.77L74.76,81a2.72,2.72,0,0,0,3.53-4.14L66,66.4,74.12,61a2.7,2.7,0,0,1,2.55-.26l22.57,9.4a2.79,2.79,0,0,1,1.41,1.3l7.51,15a2.8,2.8,0,0,1-.22,2.68Z" transform="translate(0.01 0)"/></svg>