<svg id="Lag_1" data-name="Lag 1" xmlns="http://www.w3.org/2000/svg" viewBox="0 0 131.06 149.78"><defs><style>.cls-1{fill:#717070;}.cls-2{fill:#ee9a04;}.cls-3{fill:#ff423e;}.cls-4{fill:#c12323;}.cls-5{fill:#66c49a;}.cls-6{fill:#50aa7f;}.cls-7{fill:#48ade1;}.cls-8{fill:#414143;}.cls-9{fill:#343438;}.cls-10{fill:#828186;}.cls-11{fill:#6f6e75;}</style></defs><title>trashwithwire</title><path id="trash3" class="cls-1" d="M126.37,9.36H91.27L88.52,3.9A7,7,0,0,0,82.23,0H48.79a6.94,6.94,0,0,0-6.26,3.89L39.79,9.36H4.68A4.7,4.7,0,0,0,0,14.06v9.36a4.7,4.7,0,0,0,4.68,4.64H126.37a4.71,4.71,0,0,0,4.69-4.67V14.06A4.71,4.71,0,0,0,126.37,9.36ZM15.56,136.61a14.06,14.06,0,0,0,14,13.17h71.91a14.06,14.06,0,0,0,14-13.17l6.2-99.16H9.36Z" transform="translate(0 0)"/><path class="cls-2" d="M35.75,69.39a1.74,1.74,0,0,1-.45-.06l-9.25-2.76a1.56,1.56,0,0,1,.89-3l9.25,2.76a1.57,1.57,0,0,1,1.05,1.94A1.55,1.55,0,0,1,35.75,69.39Z" transform="translate(0 0)"/><path class="cls-3" d="M62.57,85.59c-3.4-6.86-10.73-16-26.28-20.41a2.59,2.59,0,1,0-1.42,5c10.92,3.12,18.64,9,23,17.52.45.89.84,1.77,1.17,2.62h4.15V86.8C63,86.4,62.77,86,62.57,85.59Z" transform="translate(0 0)"/><path class="cls-4" d="M58.78,89.8l.21.51h3.94v-4q-.16-.37-.36-.75a35.42,35.42,0,0,0-3.79-6V89.8Z" transform="translate(0 0)"/><path class="cls-2" d="M65.53,58.46A1.55,1.55,0,0,1,64,56.91V46.16a1.56,1.56,0,0,1,3.12,0V56.91A1.55,1.55,0,0,1,65.53,58.46Z" transform="translate(0 0)"/><path class="cls-5" d="M68.13,55.53a2.6,2.6,0,1,0-5.2,0V90.31h3.82c.38-1.12.83-2.3,1.38-3.51Z" transform="translate(0 0)"/><path class="cls-6" d="M68.13,79.64a35.35,35.35,0,0,0-3.74,6A36.28,36.28,0,0,0,62.93,89v1.36h3.82c.38-1.12.83-2.3,1.38-3.51Z" transform="translate(0 0)"/><path class="cls-2" d="M95.15,69.44a1.56,1.56,0,0,1-.45-3l9.42-2.81a1.56,1.56,0,1,1,.89,3l-9.42,2.81A1.72,1.72,0,0,1,95.15,69.44Z" transform="translate(0 0)"/><path class="cls-7" d="M98,67a2.59,2.59,0,0,0-3.21-1.78C79.22,69.62,71.89,78.73,68.49,85.59a35,35,0,0,0-1.94,4.72h5.52c.31-.78.66-1.59,1.07-2.41a31,31,0,0,1,8.62-10.62l4-2.71a44.36,44.36,0,0,1,10.47-4.4A2.6,2.6,0,0,0,98,67Z" transform="translate(0 0)"/><path class="cls-8" d="M75.46,115.26V92.59A2.49,2.49,0,0,0,73,90.1H58.09a2.49,2.49,0,0,0-2.49,2.49v45.89A2.48,2.48,0,0,0,58.09,141H73a2.48,2.48,0,0,0,2.49-2.49V120.24" transform="translate(0 0)"/><path class="cls-9" d="M59.75,138.48V92.59a2.5,2.5,0,0,1,2.49-2.49H58.09a2.49,2.49,0,0,0-2.49,2.49v45.89A2.48,2.48,0,0,0,58.09,141h4.15A2.49,2.49,0,0,1,59.75,138.48Z" transform="translate(0 0)"/><rect class="cls-10" x="55.6" y="97.38" width="19.86" height="5.12"/><rect class="cls-11" x="55.6" y="97.38" width="4.15" height="5.12"/></svg>