<svg id="Lag_1" data-name="Lag 1" xmlns="http://www.w3.org/2000/svg" viewBox="0 0 81.8 93.49"><defs><style>.cls-1{fill:#717070;}.cls-2{fill:#eaca6d;}.cls-3{fill:#ce4f38;}.cls-4{fill:#3a3e48;}.cls-5{fill:#936642;}.cls-6{fill:#5d9069;}</style></defs><title>trashwithapple</title><path id="trash3" class="cls-1" d="M108.44,36.72H86.52L84.81,33.3a4.35,4.35,0,0,0-3.93-2.42H60A4.32,4.32,0,0,0,56.1,33.3l-1.71,3.42H32.48a2.92,2.92,0,0,0-2.92,2.92v5.84a2.92,2.92,0,0,0,2.92,2.92h76a2.93,2.93,0,0,0,2.92-2.92V39.64A2.93,2.93,0,0,0,108.44,36.72ZM39.27,116.15A8.77,8.77,0,0,0,48,124.36H92.9a8.76,8.76,0,0,0,8.74-8.21l3.87-61.9H35.4Z" transform="translate(-29.56 -30.88)"/><g id="apple"><path id="Path_1" data-name="Path 1" class="cls-2" d="M57,104.34l6.1-4.36a2.17,2.17,0,0,0,.72-2.63L61,91a3.21,3.21,0,0,1,.32-3.18l3.25-4.55a3.23,3.23,0,0,0,.33-3.15l-2.51-5.86h0V68.83L79.61,71l-4.06,4.68a3.23,3.23,0,0,0-.15,3.65l3.4,5.44a3.24,3.24,0,0,1,.33,2.73L75.78,97.58a2.13,2.13,0,0,0,.67,2.33l5.33,4.43L76.4,110.8H63.48Z" transform="translate(-29.56 -30.88)"/><path id="Path_2" data-name="Path 2" class="cls-3" d="M57,105.42v-1.08h5.13a4.79,4.79,0,0,1,2.47.69l1,.62a4.81,4.81,0,0,0,5.85-.72h0a4.78,4.78,0,0,1,4-1.37l6.28.78v1.08A7.54,7.54,0,0,1,74.26,113H64.57A7.53,7.53,0,0,1,57,105.43Z" transform="translate(-29.56 -30.88)"/><g id="Group_1" data-name="Group 1"><path id="Path_3" data-name="Path 3" class="cls-4" d="M67.78,93.58a2.1,2.1,0,0,1-2.15-2.07v-.08a1.08,1.08,0,0,1,2.15,0,1.1,1.1,0,0,1,0,2.19Z" transform="translate(-29.56 -30.88)"/><path id="Path_4" data-name="Path 4" class="cls-4" d="M72.1,91.43a1.71,1.71,0,1,1,2.15-2.16,2.11,2.11,0,0,1-2.07,2.16Z" transform="translate(-29.56 -30.88)"/><path id="Path_5" data-name="Path 5" class="cls-4" d="M69.94,87.13a2.13,2.13,0,0,1-2.16-2.08V85a1.08,1.08,0,0,1,1.09-1.07,1.07,1.07,0,0,1,1.07,1,1.1,1.1,0,0,1,0,2.2Z" transform="translate(-29.56 -30.88)"/></g><path id="Path_6" data-name="Path 6" class="cls-3" d="M77.46,65.62h-15a5.7,5.7,0,0,0-5.38,6v.33a1.2,1.2,0,0,0,.73,1.13l1.86.68a7.62,7.62,0,0,0,7.25-1.08h0a7.6,7.6,0,0,1,6.63-1.27l8,2.21a1.08,1.08,0,0,0,1-.24,1.14,1.14,0,0,0,.38-.92v-.86a5.69,5.69,0,0,0-5.38-6Z" transform="translate(-29.56 -30.88)"/><path id="Path_7" data-name="Path 7" class="cls-5" d="M69.94,66.7a1.07,1.07,0,0,1-1.07-1v0c0-8.88,5.66-13.28,9-15.9a1.07,1.07,0,0,1,1.31,1.7C76,54,71,57.81,71,65.63a1.07,1.07,0,0,1-.31.76A1.2,1.2,0,0,1,69.94,66.7Z" transform="translate(-29.56 -30.88)"/><path id="Path_8" data-name="Path 8" class="cls-6" d="M62.42,50.56h2.66A5.94,5.94,0,0,1,71,56.5v2.66H68.35a5.93,5.93,0,0,1-5.93-5.93Z" transform="translate(-29.56 -30.88)"/></g></svg>