<svg id="Lag_1" data-name="Lag 1" xmlns="http://www.w3.org/2000/svg" viewBox="0 0 81.8 93.49"><defs><style>.cls-1{fill:#717070;}.cls-2{fill:#48adda;}.cls-3{fill:#3c8dcc;}.cls-4{fill:#3485c7;}.cls-5{fill:#2d7dc0;}.cls-6{fill:#4cb7e5;}.cls-7{fill:#7ac6e8;}.cls-8{fill:#ea5347;}.cls-9{fill:#ed685d;}.cls-10{fill:#e94a3c;}.cls-11{fill:#6ac5d7;}.cls-12{fill:#5ec2d1;}.cls-13{fill:#3fb7c7;}.cls-14{fill:#a4d8e4;}</style></defs><title>trashwithplastic</title><path id="trash3-2" class="cls-1" d="M111.51,43.58H89.6l-1.72-3.42A4.38,4.38,0,0,0,84,37.73H63.09a4.35,4.35,0,0,0-3.91,2.43l-1.72,3.42H35.55a2.92,2.92,0,0,0-2.92,2.92v5.84a2.93,2.93,0,0,0,2.92,2.92h76a2.93,2.93,0,0,0,2.92-2.92V46.5A2.92,2.92,0,0,0,111.51,43.58ZM42.34,123a8.77,8.77,0,0,0,8.75,8.22H96a8.77,8.77,0,0,0,8.75-8.22l3.87-61.9H38.47Z" transform="translate(-32.63 -37.73)"/><g id="plastic"><path id="Path_13" data-name="Path 13" class="cls-2" d="M81.18,119.26a2.51,2.51,0,0,0,1.76.71h1.53a1.71,1.71,0,0,1-1.19-.49,1.68,1.68,0,0,0-2.1-.22Z" transform="translate(-32.63 -37.73)"/><path id="Path_14" data-name="Path 14" class="cls-3" d="M93.26,99.89a5.09,5.09,0,0,0,0,3.27l.3.92a4.81,4.81,0,0,1,.26,1.64v11.74a2.51,2.51,0,0,1-2.5,2.52H89.48a1.78,1.78,0,0,1-.64-.13,1.75,1.75,0,0,1-.47-.29l-.07-.07-.07-.06-.13-.1-.07,0a1.68,1.68,0,0,0-2.1.22,1.71,1.71,0,0,1-1.19.49H82.93a2.51,2.51,0,0,1-2.51-2.51h0V105.72a5.36,5.36,0,0,1,.26-1.64l.3-.92a5.09,5.09,0,0,0,0-3.27l-.3-.92a5.36,5.36,0,0,1-.26-1.64V93.85A10.07,10.07,0,0,1,82.3,88l2.31-3.25V80.56h5v4.19L92,88a10.14,10.14,0,0,1,1.88,5.85v3.48A5.68,5.68,0,0,1,93.58,99v0Z" transform="translate(-32.63 -37.73)"/><path id="Path_15" data-name="Path 15" class="cls-4" d="M93.84,93.85v3.48A5.68,5.68,0,0,1,93.58,99l0,0-.29.88a5.22,5.22,0,0,0,0,3.27l.3.92a4.81,4.81,0,0,1,.26,1.64v11.74a2.51,2.51,0,0,1-2.5,2.52H89.64a2.14,2.14,0,0,1-1.26-.42.46.46,0,0,1-.07-.07l-.07-.06-.13-.1-.07,0h0a2.49,2.49,0,0,0,.76-1.8V105.72a5.36,5.36,0,0,0-.26-1.64l-.3-.92a5.09,5.09,0,0,1,0-3.27l.29-.88v0a5.08,5.08,0,0,0,.27-1.64V93.85a11.43,11.43,0,0,0-.12-1.55A10.08,10.08,0,0,0,86.94,88l-2.33-3.25V80.56h5v4.19L92,88A10,10,0,0,1,93.84,93.85Z" transform="translate(-32.63 -37.73)"/><g id="Group_2" data-name="Group 2"><path id="Path_16" data-name="Path 16" class="cls-5" d="M93.72,92.3H86.29V90.62h7A9.83,9.83,0,0,1,93.72,92.3Z" transform="translate(-32.63 -37.73)"/><path id="Path_17" data-name="Path 17" class="cls-5" d="M86.29,94h7.55v1.68H86.29Z" transform="translate(-32.63 -37.73)"/><path id="Path_18" data-name="Path 18" class="cls-5" d="M93.84,97.33A5.36,5.36,0,0,1,93.58,99v0H86.29V97.33Z" transform="translate(-32.63 -37.73)"/><path id="Path_19" data-name="Path 19" class="cls-5" d="M86.29,105.72h7.55v1.68H86.29Z" transform="translate(-32.63 -37.73)"/><path id="Path_20" data-name="Path 20" class="cls-5" d="M86.29,109.07h7.55v1.68H86.29Z" transform="translate(-32.63 -37.73)"/><path id="Path_21" data-name="Path 21" class="cls-5" d="M86.29,112.43h7.55v1.67H86.29Z" transform="translate(-32.63 -37.73)"/></g><path id="Path_22" data-name="Path 22" class="cls-4" d="M85.45,101.53l-.84,1.67.84,1.68v1.68l-.84,1.68.84,1.68v1.67l-.84,1.68.84,1.68v3.35a1.72,1.72,0,0,1-1.2,1.68H82.93a2.51,2.51,0,0,1-2.51-2.51h0V105.72a5.36,5.36,0,0,1,.26-1.64l.3-.92a5.09,5.09,0,0,0,0-3.27l-.3-.92a5.36,5.36,0,0,1-.26-1.64V93.85a10.14,10.14,0,0,1,.28-2.39h1.4v3.36L84.53,96a1.7,1.7,0,0,1,.92,1.5Z" transform="translate(-32.63 -37.73)"/><path id="Path_23" data-name="Path 23" class="cls-6" d="M75.38,89v25.37a5.65,5.65,0,0,1-9,4.52,3.11,3.11,0,0,0-3.69,0,5.65,5.65,0,0,1-7.92-1.12h0a5.58,5.58,0,0,1-1.08-2.65,6.27,6.27,0,0,1-.05-.74V89a10.89,10.89,0,0,1,7.55-10.37V71.34h6.71v7.24A10.87,10.87,0,0,1,75.38,89Z" transform="translate(-32.63 -37.73)"/><path id="Path_24" data-name="Path 24" class="cls-2" d="M75.39,89v25.37a5.66,5.66,0,0,1-9.06,4.52,3.11,3.11,0,0,0-3.69,0,5.65,5.65,0,0,1-7.92-1.12h0a5.48,5.48,0,0,1-1.08-2.65c7.18-5,14.84-14.12,20.63-30.92A10.82,10.82,0,0,1,75.39,89Z" transform="translate(-32.63 -37.73)"/><path id="Path_25" data-name="Path 25" class="cls-7" d="M60.75,83.37,59.82,82a8.34,8.34,0,0,1,2.08-1l.51,1.59A6.9,6.9,0,0,0,60.75,83.37Z" transform="translate(-32.63 -37.73)"/><path id="Path_26" data-name="Path 26" class="cls-7" d="M57.82,88.2,56.15,88a8.4,8.4,0,0,1,2.29-4.87l1.2,1.16A6.72,6.72,0,0,0,57.82,88.2Z" transform="translate(-32.63 -37.73)"/><path id="Path_27" data-name="Path 27" class="cls-7" d="M59.45,74.69H69.52v1.68H59.45Z" transform="translate(-32.63 -37.73)"/><path id="Path_28" data-name="Path 28" class="cls-8" d="M53.58,90.62h21.8v18.45H53.58Z" transform="translate(-32.63 -37.73)"/><path id="Path_29" data-name="Path 29" class="cls-9" d="M56.1,93.14h1.68v1.68H56.1Z" transform="translate(-32.63 -37.73)"/><path id="Path_30" data-name="Path 30" class="cls-9" d="M56.1,96.49h1.68V104H56.1Z" transform="translate(-32.63 -37.73)"/><path id="Path_31" data-name="Path 31" class="cls-2" d="M61.13,76.37h6.71v2.51H61.13Z" transform="translate(-32.63 -37.73)"/><path id="Path_32" data-name="Path 32" class="cls-10" d="M75.39,90.62v18.45h-15A63.89,63.89,0,0,0,71.78,90.62Z" transform="translate(-32.63 -37.73)"/><path id="Path_33" data-name="Path 33" class="cls-11" d="M82.93,103.2l.84,1.68v1.68l-.84,1.68.84,1.68v1.67l-.84,1.67.84,1.68v3.35A1.68,1.68,0,0,1,82.1,120H73.71A1.69,1.69,0,0,1,72,118.3v-3.36l.84-1.67L72,111.59v-1.68l.84-1.67L72,106.56v-1.67l.84-1.68L72,101.53v-4A1.69,1.69,0,0,1,73,96l2.43-1.21V91.46h5v3.36L82.85,96a1.68,1.68,0,0,1,.92,1.5v4Z" transform="translate(-32.63 -37.73)"/><path id="Path_34" data-name="Path 34" class="cls-12" d="M83.77,101.53l-.83,1.67.83,1.68v1.68l-.83,1.68.83,1.68v1.67l-.83,1.68.83,1.68v3.35A1.68,1.68,0,0,1,82.1,120H78.74a1.68,1.68,0,0,0,1.68-1.68V115l-.84-1.68.84-1.68v-1.68l-.84-1.67.84-1.68v-1.68l-.84-1.68.84-1.67v-4A1.7,1.7,0,0,0,79.5,96l-2.43-1.21V91.46h3.35v3.36L82.85,96a1.68,1.68,0,0,1,.92,1.5Z" transform="translate(-32.63 -37.73)"/><path id="Path_35" data-name="Path 35" class="cls-13" d="M82.94,103.2l.41.84h-8v-1.68h8Z" transform="translate(-32.63 -37.73)"/><path id="Path_36" data-name="Path 36" class="cls-13" d="M82.94,108.24l.41.83h-8V107.4h8Z" transform="translate(-32.63 -37.73)"/><path id="Path_37" data-name="Path 37" class="cls-13" d="M82.94,113.27l.41.84h-8v-1.68h8Z" transform="translate(-32.63 -37.73)"/><path id="Path_38" data-name="Path 38" class="cls-14" d="M74.55,98.17h1.68v2.52H74.55Z" transform="translate(-32.63 -37.73)"/><ellipse id="Ellipse_3" data-name="Ellipse 3" class="cls-13" cx="44.7" cy="53.51" rx="2" ry="1"/></g></svg>