<svg id="Lag_1" data-name="Lag 1" xmlns="http://www.w3.org/2000/svg" viewBox="0 0 131.06 149.78"><defs><style>.cls-1{fill:#717070;}.cls-2{fill:#f2f2f2;}.cls-3{fill:#f94848;}.cls-4{fill:#e23d3d;}.cls-5{fill:#ccc;}.cls-6{fill:#fff;}.cls-7{fill:#4d4d4d;}</style></defs><title>trashwithcan</title><path id="trash3" class="cls-1" d="M126.36,9.36H91.26L88.51,3.9A7,7,0,0,0,82.22,0H48.78a7,7,0,0,0-6.27,3.89L39.78,9.36H4.67A4.69,4.69,0,0,0,0,14.06v9.36a4.7,4.7,0,0,0,4.68,4.64H126.36a4.71,4.71,0,0,0,4.69-4.67V14.06A4.72,4.72,0,0,0,126.36,9.36ZM15.55,136.61a14.06,14.06,0,0,0,14,13.17h71.91a14.07,14.07,0,0,0,14-13.17l6.2-99.16H9.35Z" transform="translate(0.01 0)"/><path class="cls-2" d="M86,133.72v1.8c0,4.38-8.9,7.93-19.89,7.93s-19.89-3.55-19.89-7.93v-1.8" transform="translate(0.01 0)"/><path class="cls-3" d="M88.51,69.9v59.66c0,4.95-10,9-22.44,9a51.78,51.78,0,0,1-10.19-1c-7.27-1.48-12.25-4.5-12.25-8V69.9Z" transform="translate(0.01 0)"/><path class="cls-2" d="M88.51,69.9c0,4.95-10,8.95-22.44,8.95a52.07,52.07,0,0,1-10.31-1c-7.21-1.49-12.13-4.5-12.13-8,0-1.54,1-3,2.68-4.25H85.83C87.54,66.91,88.51,68.36,88.51,69.9Z" transform="translate(0.01 0)"/><path class="cls-4" d="M55.88,69.9v67.65c-7.27-1.48-12.25-4.5-12.25-8V69.9Z" transform="translate(0.01 0)"/><path class="cls-2" d="M86,59.18v5.54c0,4.38-8.9,7.94-19.89,7.94a47.17,47.17,0,0,1-6.91-.5c-7.58-1.12-13-4-13-7.44V59.18Z" transform="translate(0.01 0)"/><path class="cls-5" d="M59.16,59.18v13c-7.58-1.12-13-4-13-7.44V59.18Z" transform="translate(0.01 0)"/><path class="cls-5" d="M86,59.18c0,4.39-8.9,7.94-19.89,7.94a47,47,0,0,1-7.54-.59c-7.25-1.19-12.35-4-12.35-7.35s5.1-6.16,12.35-7.34a47,47,0,0,1,7.54-.59C77.06,51.25,86,54.8,86,59.18Z" transform="translate(0.01 0)"/><path class="cls-6" d="M58.53,51.84V66.53c-7.25-1.19-12.35-4-12.35-7.35S51.28,53,58.53,51.84Z" transform="translate(0.01 0)"/><path class="cls-2" d="M84.72,62c-2.81,3-10.1,5.17-18.65,5.17S50.24,65,47.42,62c2.82-3,10.11-5.17,18.65-5.17S81.9,58.93,84.72,62Z" transform="translate(0.01 0)"/><path class="cls-7" d="M78.16,65.49a42.17,42.17,0,0,1-11.72,1.63,3,3,0,0,1-.16-1c0-2.43,2.67-4.4,6-4.4C75.26,61.73,77.74,63.36,78.16,65.49Z" transform="translate(0.01 0)"/><path class="cls-5" d="M59.16,72.16s-3.4,2.13-3.4,5.7c-7.21-1.49-12.14-4.5-12.14-8,0-1.54,1-3,2.69-4.25h4.35Z" transform="translate(0.01 0)"/></svg>