<svg id="Lag_1" data-name="Lag 1" xmlns="http://www.w3.org/2000/svg" viewBox="0 0 131.06 149.78"><defs><style>.cls-1{fill:#717070;}</style></defs><title>trashgrey</title><path id="trash3" class="cls-1" d="M170.58,52.3h-35.1l-2.75-5.46a7,7,0,0,0-6.29-3.9H93a6.94,6.94,0,0,0-6.26,3.89L84,52.3H48.89A4.7,4.7,0,0,0,44.21,57v9.36A4.7,4.7,0,0,0,48.89,71H170.58a4.7,4.7,0,0,0,4.69-4.67V57A4.71,4.71,0,0,0,170.58,52.3ZM59.77,179.55a14.06,14.06,0,0,0,14,13.17h71.91a14.06,14.06,0,0,0,14-13.17l6.2-99.16H53.57Z" transform="translate(-44.21 -42.94)"/></svg>