<svg id="Lag_1" data-name="Lag 1" xmlns="http://www.w3.org/2000/svg" viewBox="0 0 131.06 149.78"><defs><style>.cls-1{fill:#717070;}.cls-2{fill:#303c42;}.cls-3{fill:#7e872a;}.cls-4{opacity:0.1;}.cls-4,.cls-5{isolation:isolate;}.cls-5{fill:#fff;opacity:0.2;}</style></defs><title>trashwithbottlecorrect</title><path id="trash3" class="cls-1" d="M126.37,9.36H91.27L88.52,3.9A7,7,0,0,0,82.23,0H48.79a6.94,6.94,0,0,0-6.26,3.89L39.79,9.36H4.68A4.7,4.7,0,0,0,0,14.06v9.36a4.7,4.7,0,0,0,4.68,4.64H126.37a4.71,4.71,0,0,0,4.69-4.67V14.06A4.71,4.71,0,0,0,126.37,9.36ZM15.56,136.61a14.06,14.06,0,0,0,14,13.17h71.91a14.06,14.06,0,0,0,14-13.17l6.2-99.16H9.36Z" transform="translate(0 0)"/><path class="cls-2" d="M79.38,85.06l-4.12-33A2.31,2.31,0,0,0,76,47.72l.9-1.34a2.37,2.37,0,0,0-2-3.67H56.08a2.37,2.37,0,0,0-2,3.67l.9,1.34a2.31,2.31,0,0,0,.76,4.37l-4.12,33a23.5,23.5,0,0,0-9.73,19v35.39a2.36,2.36,0,0,0,3.67,2l12.19-8.12,8.13,12.19a2.36,2.36,0,0,0,2,1.05H68a2.34,2.34,0,0,0,2-1.3l3.26-6.5,7.12,7.12a2.36,2.36,0,0,0,1.67.69,2.4,2.4,0,0,0,1.67-.69l4.72-4.72a2.38,2.38,0,0,0,.69-1.67V104.05A23.5,23.5,0,0,0,79.38,85.06Z" transform="translate(0 0)"/><path class="cls-3" d="M60.52,52.15h10l3.75,30a23.12,23.12,0,0,0-17.5,0Z" transform="translate(0 0)"/><path class="cls-3" d="M84.39,138.46,82,140.82l-7.77-7.77a2.38,2.38,0,0,0-1.67-.69l-.38,0a2.4,2.4,0,0,0-1.73,1.28l-2.9,5.8L60.4,128.7a2.36,2.36,0,0,0-3.27-.66l-10.49,7v-31a18.88,18.88,0,0,1,37.75,0Z" transform="translate(0 0)"/><path class="cls-4" d="M74.26,82.18l-3.75-30H68.64l2.26,29A23.28,23.28,0,0,1,74.26,82.18Z" transform="translate(0 0)"/><path class="cls-5" d="M62.39,52.15H60.52l-3.75,30a23.28,23.28,0,0,1,3.36-1Z" transform="translate(0 0)"/><path class="cls-4" d="M65.52,85.18c6.5,0,11.79,8.47,11.79,18.87v32.06L82,140.82l2.36-2.36V104.05A18.9,18.9,0,0,0,65.52,85.18Z" transform="translate(0 0)"/><path class="cls-5" d="M46.64,104.05v31l7.08-4.72V104.05c0-10.4,5.29-18.87,11.79-18.87A18.9,18.9,0,0,0,46.64,104.05Z" transform="translate(0 0)"/></svg>