<svg id="Lag_1" data-name="Lag 1" xmlns="http://www.w3.org/2000/svg" viewBox="0 0 131.06 149.78"><defs><style>.cls-1{fill:#717070;}.cls-2{fill:#d9ac80;}.cls-3{fill:#d7baa4;}.cls-4{fill:#a67e4f;}.cls-5{fill:#926e43;}.cls-6{fill:#f2d3ba;}</style></defs><title>trashwithbox</title><path id="trash3" class="cls-1" d="M126.37,9.36H91.27L88.52,3.9A7,7,0,0,0,82.23,0H48.79a6.94,6.94,0,0,0-6.26,3.89L39.79,9.36H4.68A4.7,4.7,0,0,0,0,14.06v9.36a4.7,4.7,0,0,0,4.68,4.64H126.37a4.71,4.71,0,0,0,4.69-4.67V14.06A4.71,4.71,0,0,0,126.37,9.36ZM15.56,136.61a14.06,14.06,0,0,0,14,13.17h71.91a14.06,14.06,0,0,0,14-13.17l6.2-99.16H9.36Z" transform="translate(0 0)"/><polygon class="cls-2" points="65.52 51.92 85.81 62.37 106.19 72.72 85.81 83.17 65.52 93.61 45.22 83.17 24.84 72.72 45.22 62.37 65.52 51.92"/><polygon class="cls-3" points="90.91 90.05 90.91 80.62 80.72 85.8 80.72 95.23 86.32 88.35 90.91 90.05"/><polygon class="cls-4" points="65.52 93.61 65.52 135.31 106.19 114.5 106.19 72.72 90.91 80.62 90.57 80.79 90.57 89.96 86.32 88.35 80.72 95.23 80.72 85.8 65.52 93.61"/><polygon class="cls-5" points="65.52 135.31 65.52 93.61 45.22 83.17 24.84 72.72 24.84 114.5 65.52 135.31"/><polygon class="cls-6" points="40.12 64.91 80.72 85.8 90.57 80.79 90.91 80.62 50.31 59.73 45.22 62.37 40.12 64.91"/></svg>