<svg id="Lag_1" data-name="Lag 1" xmlns="http://www.w3.org/2000/svg" viewBox="0 0 81.8 93.49"><defs><style>.cls-1{fill:#717070;}.cls-2{fill:#c5421e;}.cls-3{fill:#ed8a19;}.cls-4{fill:#dd352e;}</style></defs><title>trashwithbattery</title><path id="trash3-3" class="cls-1" d="M111.51,37.33H89.6l-1.72-3.41A4.38,4.38,0,0,0,84,31.49H63.09a4.33,4.33,0,0,0-3.91,2.43l-1.72,3.41H35.55a2.94,2.94,0,0,0-2.92,2.92V46.1A2.94,2.94,0,0,0,35.55,49h76a2.93,2.93,0,0,0,2.92-2.92V40.25A2.93,2.93,0,0,0,111.51,37.33ZM42.34,116.76A8.78,8.78,0,0,0,51.09,125H96a8.78,8.78,0,0,0,8.75-8.22l3.87-61.9H38.47Z" transform="translate(-32.63 -31.49)"/><g id="battery"><rect id="Rectangle_8" data-name="Rectangle 8" class="cls-2" x="36.73" y="33.6" width="10.04" height="4.18"/><path id="Path_11" data-name="Path 11" class="cls-3" d="M83.73,68.44H65a2.37,2.37,0,0,0-2.37,2.37v40.45A2.37,2.37,0,0,0,65,113.63H83.73a2.37,2.37,0,0,0,2.37-2.37V70.81A2.37,2.37,0,0,0,83.73,68.44Z" transform="translate(-32.63 -31.49)"/><path id="Path_12" data-name="Path 12" class="cls-4" d="M81.08,91h-5l3.35-12.56L67.69,92.71h5l-3.35,12.55Z" transform="translate(-32.63 -31.49)"/></g></svg>