<svg xmlns="http://www.w3.org/2000/svg" width="129.975" height="130" viewBox="0 0 129.975 130"><defs><style>.a{fill:#ff7816;}.b{fill:#ff9f00;}.c{fill:#ffd400;}.d{fill:#f6a117;}.e{fill:#e25a4b;}.f{fill:#ef492e;}.g{fill:#697c86;}.h{fill:#465a61;}</style></defs><path class="a" d="M386.52,0H375.551l-7.795,7.617H386.52a3.8,3.8,0,0,1,3.809,3.809V17.24a33.942,33.942,0,0,1-23.207,32.2l-5.383,1.777a3.818,3.818,0,0,0,1.193,7.439,3.192,3.192,0,0,0,1.193-.2l5.383-1.8a41.335,41.335,0,0,0,19.3-13.457A41.734,41.734,0,0,0,397.92,17.24V11.426A11.405,11.405,0,0,0,386.52,0Z" transform="translate(-267.946)"/><path class="b" d="M36.182,51.213,30.8,49.436A33.813,33.813,0,0,1,15.031,38.441a34.24,34.24,0,0,1-7.414-21.2V11.426a3.8,3.8,0,0,1,3.809-3.809H31.1L22.395,0H11.426A11.443,11.443,0,0,0,0,11.426V17.24A41.571,41.571,0,0,0,28.412,56.646l5.383,1.777a4.06,4.06,0,0,0,1.193.2,3.8,3.8,0,0,0,1.193-7.414Z"/><path class="c" d="M142.485,74.344V79.98a3.772,3.772,0,0,0,3.809,3.809A11.41,11.41,0,0,1,157.72,95.215v7.617a3.772,3.772,0,0,1-3.809,3.809H107.7a3.772,3.772,0,0,1-3.809-3.809V95.215a11.41,11.41,0,0,1,11.426-11.426,3.772,3.772,0,0,0,3.809-3.809V74.344a37.968,37.968,0,0,1-26.2-31.84L88.2,0h85.211l-4.723,42.5A37.968,37.968,0,0,1,142.485,74.344Z" transform="translate(-65.805)"/><path class="d" d="M279.105,106.641H256V0h42.605l-4.723,42.5a37.968,37.968,0,0,1-26.2,31.84V79.98a3.772,3.772,0,0,0,3.809,3.809,11.41,11.41,0,0,1,11.426,11.426v7.617A3.772,3.772,0,0,1,279.105,106.641Z" transform="translate(-191)"/><path class="b" d="M218.958,73.93a3.874,3.874,0,0,0-3.123-2.666L207.3,70.045,203.5,62.5a4.037,4.037,0,0,0-6.855,0l-3.809,7.541L184.3,71.264a3.792,3.792,0,0,0-2.057,6.551l6.094,5.865-1.447,8.227a3.863,3.863,0,0,0,1.523,3.732,3.736,3.736,0,0,0,3.961.3l7.693-3.961,7.693,3.961a3.724,3.724,0,0,0,3.961-.3,3.863,3.863,0,0,0,1.523-3.732L211.8,83.68l6.094-5.865A3.9,3.9,0,0,0,218.958,73.93Z" transform="translate(-135.067 -45.213)"/><path class="e" d="M189.063,393.809v23.055H120V393.809A3.772,3.772,0,0,1,123.809,390h61.445A3.772,3.772,0,0,1,189.063,393.809Z" transform="translate(-89.531 -290.977)"/><path class="a" d="M263.693,95.944,256,91.983V60.6a3.773,3.773,0,0,1,3.428,1.9l3.809,7.541,8.531,1.219a3.792,3.792,0,0,1,2.057,6.551L267.73,83.68l1.447,8.227a3.863,3.863,0,0,1-1.523,3.732A3.724,3.724,0,0,1,263.693,95.944Z" transform="translate(-191 -45.213)"/><path class="f" d="M290.531,393.809v23.055H256V390h30.723A3.772,3.772,0,0,1,290.531,393.809Z" transform="translate(-191 -290.977)"/><path class="g" d="M174.3,485.809a3.772,3.772,0,0,1-3.809,3.809H93.809a3.809,3.809,0,0,1,0-7.617h76.68A3.772,3.772,0,0,1,174.3,485.809Z" transform="translate(-67.148 -359.617)"/><path class="h" d="M298.148,485.809a3.772,3.772,0,0,1-3.809,3.809H256V482h38.34A3.772,3.772,0,0,1,298.148,485.809Z" transform="translate(-191 -359.617)"/></svg>