<svg xmlns="http://www.w3.org/2000/svg" width="44.571" height="39" viewBox="0 0 44.571 39"><defs><style>.a{fill:#f6a117;}</style></defs><path class="a" d="M1.592,67.163H42.98a1.6,1.6,0,0,0,1.592-1.592v-3.98A1.6,1.6,0,0,0,42.98,60H1.592A1.6,1.6,0,0,0,0,61.592v3.98A1.6,1.6,0,0,0,1.592,67.163Zm0,15.918H42.98a1.6,1.6,0,0,0,1.592-1.592V77.51a1.6,1.6,0,0,0-1.592-1.592H1.592A1.6,1.6,0,0,0,0,77.51v3.98A1.6,1.6,0,0,0,1.592,83.082ZM1.592,99H42.98a1.6,1.6,0,0,0,1.592-1.592v-3.98a1.6,1.6,0,0,0-1.592-1.592H1.592A1.6,1.6,0,0,0,0,93.429v3.98A1.6,1.6,0,0,0,1.592,99Z" transform="translate(0 -60)"/></svg>