<svg xmlns="http://www.w3.org/2000/svg" width="71.899" height="82.17" viewBox="0 0 71.899 82.17"><defs><style>.a{fill:#707070;}</style></defs><path class="a" d="M69.331,5.136H50.072l-1.509-3A3.849,3.849,0,0,0,45.113,0H26.769a3.808,3.808,0,0,0-3.434,2.134l-1.509,3H2.568A2.575,2.575,0,0,0,0,7.7v5.136a2.575,2.575,0,0,0,2.568,2.568H69.331A2.575,2.575,0,0,0,71.9,12.839V7.7A2.575,2.575,0,0,0,69.331,5.136ZM8.538,74.948a7.709,7.709,0,0,0,7.687,7.222H55.673a7.709,7.709,0,0,0,7.687-7.222l3.4-54.405H5.136Z"/></svg>